{"title":"PINK (2016) x264 DesiSCR Rip AC3 5.1 -DDR","uid":15847299,"size":1599182389,"categoryP":"video","categoryS":"movies","magnet":"?xt=urn:btih:15cd0a5d55c6cc707911122c7abe9d70c82a7812&amp;dn=PINK+%282016%29+x264+DesiSCR+Rip+AC3+5.1+-DDR&amp;tr=udp%3A%2F%2Ftracker.leechers-paradise.org%3A6969&amp;tr=udp%3A%2F%2Fzer0day.ch%3A1337&amp;tr=udp%3A%2F%2Fopen.demonii.com%3A1337&amp;tr=udp%3A%2F%2Ftracker.coppersurfer.tk%3A6969&amp;tr=udp%3A%2F%2Fexodus.desync.com%3A6969","seeders":324,"leechers":239,"uploader":"SaM","files":3,"time":1474116960,"description":"1/3 DvD x264 DesiSCR Rip\r\n\r\nHindi AC3 5.1 upmix Audio\r\n\r\n\r\n\r\nSCREENSHOTS\r\n \nhttp://extraimago.com/image/wdVk \nhttp://extraimago.com/image/wdVP \nhttp://extraimago.com/image/wdVp \nhttp://extraimago.com/image/wdVY \nhttp://extraimago.com/image/wduN \nhttp://extraimago.com/image/wdu2 \nhttp://extraimago.com/image/wduw \nhttp://extraimago.com/image/wdua \nhttp://extraimago.com/image/wdVf \nhttp://extraimago.com/image/wdVA \nhttp://extraimago.com/image/wdVv \nhttp://extraimago.com/image/wdVu \nhttp://extraimago.com/image/wdVV \nhttp://extraimago.com/image/wdV6 \nhttp://extraimago.com/image/wdVx\r\n\r\nSpecs:\r\nSource: DesiSCR @ ICTV\r\n\r\nFormat : Matroska\r\nFile size : 1.48 GiB\r\nDuration : 2 h 15 min\r\nOverall bit rate : 1 558 kb/s\r\n\r\nVideo\r\nID : 1\r\nFormat : AVC\r\nFormat/Info : Advanced Video Codec\r\nFormat profile :   \r\nFormat settings, CABAC : Yes\r\nFormat settings, ReFrames : 16 frames\r\nCodec ID : V_MPEG4/ISO/AVC\r\nDuration : 2 h 15 min\r\nBit rate : 1 300 kb/s\r\nWidth : 720 pixels\r\nHeight : 304 pixels\r\nDisplay aspect ratio : 2.35:1\r\nFrame rate mode : Constant\r\nFrame rate : 25.000 FPS\r\nColor space : YUV\r\nChroma subsampling : 4:2:0\r\nBit depth : 8 bits\r\nScan type : Progressive\r\nBits/(Pixel*Frame) : 0.238\r\nStream size : 1.23 GiB (91%)\r\nDefault : Yes\r\nForced : No\r\nColor range : Limited\r\nColor primaries : BT.601 NTSC\r\nTransfer characteristics : BT.470 System B, BT.470 System G\r\nMatrix coefficients : BT.601\r\n\r\nAudio\r\nFormat : AC-3\r\nFormat/Info : Audio Coding 3\r\nMode extension : CM (complete main)\r\nFormat settings, Endianness : Big\r\nCodec ID : A_AC3\r\nDuration : 2 h 15 min\r\nBit rate mode : Constant\r\nBit rate : 256 kb/s\r\nChannel(s) : 6 channels\r\nChannel positions : Front: L C R, Side: L R, LFE\r\nSampling rate : 48.0 kHz\r\nFrame rate : 31.250 FPS (1536 spf)\r\nCompression mode : Lossy\r\nStream size : 249 MiB (16%)\r\nLanguage : Hindi\r\nDefault : Yes\r\nForced : No\r\n\r\n\r\n\r\n\r\nSAMPLE Included","torrent":{"xt":"urn:btih:15cd0a5d55c6cc707911122c7abe9d70c82a7812","amp;dn":"PINK+%282016%29+x264+DesiSCR+Rip+AC3+5.1+-DDR","amp;tr":["udp%3A%2F%2Ftracker.leechers-paradise.org%3A6969","udp%3A%2F%2Fzer0day.ch%3A1337","udp%3A%2F%2Fopen.demonii.com%3A1337","udp%3A%2F%2Ftracker.coppersurfer.tk%3A6969","udp%3A%2F%2Fexodus.desync.com%3A6969"],"infoHash":"15cd0a5d55c6cc707911122c7abe9d70c82a7812","infoHashBuffer":{"type":"Buffer","data":[21,205,10,93,85,198,204,112,121,17,18,44,122,190,157,112,200,42,120,18]},"announce":[],"urlList":[]}}